<mxfile host="app.diagrams.net" modified="2023-10-13T09:40:02.824Z" agent="Mozilla/5.0 (Windows NT 10.0; Win64; x64) AppleWebKit/537.36 (KHTML, like Gecko) Chrome/117.0.0.0 Safari/537.36 Edg/117.0.2045.60" etag="sO19f8WGtf7ssTxp5-6S" version="22.0.4" type="device">
  <diagram name="Page-1" id="13e1069c-82ec-6db2-03f1-153e76fe0fe0">
    <mxGraphModel dx="986" dy="459" grid="1" gridSize="10" guides="1" tooltips="1" connect="1" arrows="1" fold="1" page="1" pageScale="1" pageWidth="1100" pageHeight="850" background="none" math="0" shadow="0">
      <root>
        <mxCell id="0" />
        <mxCell id="1" parent="0" />
        <mxCell id="7baba1c4bc27f4b0-2" value=":ServiceAcessGui-simulator&lt;br&gt;.Request&lt;br&gt;." style="shape=umlLifeline;perimeter=lifelinePerimeter;whiteSpace=wrap;html=1;container=1;collapsible=0;recursiveResize=0;outlineConnect=0;rounded=1;shadow=0;comic=0;labelBackgroundColor=none;strokeWidth=1;fontFamily=Verdana;fontSize=12;align=center;size=90;" parent="1" vertex="1">
          <mxGeometry x="220" y="70" width="110" height="630" as="geometry" />
        </mxCell>
        <mxCell id="7baba1c4bc27f4b0-10" value="" style="html=1;points=[];perimeter=orthogonalPerimeter;rounded=0;shadow=0;comic=0;labelBackgroundColor=none;strokeWidth=1;fontFamily=Verdana;fontSize=12;align=center;" parent="7baba1c4bc27f4b0-2" vertex="1">
          <mxGeometry x="50" y="150" width="10" height="350" as="geometry" />
        </mxCell>
        <mxCell id="7baba1c4bc27f4b0-3" value=":CSSctx&lt;br&gt;.ColdStorageService" style="shape=umlLifeline;perimeter=lifelinePerimeter;whiteSpace=wrap;html=1;container=1;collapsible=0;recursiveResize=0;outlineConnect=0;rounded=1;shadow=0;comic=0;labelBackgroundColor=none;strokeWidth=1;fontFamily=Verdana;fontSize=12;align=center;size=35;" parent="1" vertex="1">
          <mxGeometry x="440" y="90" width="405" height="700" as="geometry" />
        </mxCell>
        <mxCell id="7baba1c4bc27f4b0-13" value="" style="html=1;points=[];perimeter=orthogonalPerimeter;rounded=0;shadow=0;comic=0;labelBackgroundColor=none;strokeWidth=1;fontFamily=Verdana;fontSize=12;align=center;" parent="7baba1c4bc27f4b0-3" vertex="1">
          <mxGeometry x="197.5" y="70" width="10" height="400" as="geometry" />
        </mxCell>
        <mxCell id="WGYdtUEUaQrTIStyGSWO-18" value="" style="html=1;verticalAlign=bottom;endArrow=open;dashed=1;endSize=8;labelBackgroundColor=none;fontFamily=Verdana;fontSize=12;edgeStyle=elbowEdgeStyle;elbow=vertical;" parent="7baba1c4bc27f4b0-3" edge="1" source="7baba1c4bc27f4b0-5">
          <mxGeometry x="-0.2789" y="-1" relative="1" as="geometry">
            <mxPoint x="210" y="290" as="targetPoint" />
            <Array as="points" />
            <mxPoint x="259.5" y="290" as="sourcePoint" />
            <mxPoint as="offset" />
          </mxGeometry>
        </mxCell>
        <mxCell id="u2iDfoAtIh-SDBU8Mwto-3" value="enoughSpace/noSpace" style="edgeLabel;html=1;align=center;verticalAlign=middle;resizable=0;points=[];" parent="WGYdtUEUaQrTIStyGSWO-18" connectable="0" vertex="1">
          <mxGeometry x="0.451" relative="1" as="geometry">
            <mxPoint x="32" y="-20" as="offset" />
          </mxGeometry>
        </mxCell>
        <mxCell id="u2iDfoAtIh-SDBU8Mwto-1" value="alt" style="shape=umlFrame;whiteSpace=wrap;html=1;pointerEvents=0;recursiveResize=0;container=1;collapsible=0;width=50;" parent="7baba1c4bc27f4b0-3" vertex="1">
          <mxGeometry x="-360" y="300" width="765" height="135" as="geometry" />
        </mxCell>
        <mxCell id="WGYdtUEUaQrTIStyGSWO-26" value="ticket" style="html=1;verticalAlign=bottom;endArrow=open;dashed=1;endSize=8;labelBackgroundColor=none;fontFamily=Verdana;fontSize=12;edgeStyle=elbowEdgeStyle;elbow=vertical;" parent="u2iDfoAtIh-SDBU8Mwto-1" edge="1">
          <mxGeometry x="-0.6608" relative="1" as="geometry">
            <mxPoint x="557.5" y="100" as="targetPoint" />
            <Array as="points">
              <mxPoint x="633.3299999999999" y="100" />
            </Array>
            <mxPoint x="857" y="100" as="sourcePoint" />
            <mxPoint as="offset" />
          </mxGeometry>
        </mxCell>
        <mxCell id="WGYdtUEUaQrTIStyGSWO-24" value="generateticket" style="html=1;verticalAlign=bottom;endArrow=block;labelBackgroundColor=none;fontFamily=Verdana;fontSize=12;" parent="u2iDfoAtIh-SDBU8Mwto-1" edge="1">
          <mxGeometry x="-0.5594" y="1" relative="1" as="geometry">
            <mxPoint x="567.5" y="80" as="sourcePoint" />
            <mxPoint x="865" y="80" as="targetPoint" />
            <Array as="points" />
            <mxPoint as="offset" />
          </mxGeometry>
        </mxCell>
        <mxCell id="dP_4IrJM_J5E9Byek_nk-2" value="" style="endArrow=none;dashed=1;html=1;dashPattern=1 3;strokeWidth=2;rounded=0;exitX=-0.017;exitY=0.487;exitDx=0;exitDy=0;exitPerimeter=0;entryX=1.009;entryY=0.375;entryDx=0;entryDy=0;entryPerimeter=0;" edge="1" parent="u2iDfoAtIh-SDBU8Mwto-1" target="u2iDfoAtIh-SDBU8Mwto-1">
          <mxGeometry width="50" height="50" relative="1" as="geometry">
            <mxPoint x="0.004999999999881766" y="50" as="sourcePoint" />
            <mxPoint x="760" y="50" as="targetPoint" />
          </mxGeometry>
        </mxCell>
        <mxCell id="WGYdtUEUaQrTIStyGSWO-17" value="&lt;br&gt;&lt;b style=&quot;text-decoration-line: underline; font-style: italic;&quot;&gt;loadrejected&lt;/b&gt;" style="html=1;verticalAlign=bottom;endArrow=open;dashed=1;endSize=8;labelBackgroundColor=none;fontFamily=Verdana;fontSize=12;edgeStyle=elbowEdgeStyle;elbow=vertical;" parent="u2iDfoAtIh-SDBU8Mwto-1" edge="1">
          <mxGeometry x="-0.1667" relative="1" as="geometry">
            <mxPoint x="202.5" y="33.99999999999994" as="targetPoint" />
            <Array as="points">
              <mxPoint x="275.75" y="34" />
              <mxPoint x="201.25" y="44" />
            </Array>
            <mxPoint x="562.5" y="34" as="sourcePoint" />
            <mxPoint as="offset" />
          </mxGeometry>
        </mxCell>
        <mxCell id="dP_4IrJM_J5E9Byek_nk-5" value="[enoughSpace]" style="text;html=1;strokeColor=none;fillColor=none;align=center;verticalAlign=middle;whiteSpace=wrap;rounded=0;" vertex="1" parent="u2iDfoAtIh-SDBU8Mwto-1">
          <mxGeometry x="460" y="52.5" width="60" height="30" as="geometry" />
        </mxCell>
        <mxCell id="dP_4IrJM_J5E9Byek_nk-7" value="&lt;b style=&quot;border-color: var(--border-color); font-family: Verdana; text-decoration-line: underline; font-style: italic;&quot;&gt;[&lt;/b&gt;noSpace&lt;b style=&quot;border-color: var(--border-color); font-family: Verdana; text-decoration-line: underline; font-style: italic;&quot;&gt;]&lt;/b&gt;" style="text;html=1;strokeColor=none;fillColor=none;align=center;verticalAlign=middle;whiteSpace=wrap;rounded=0;" vertex="1" parent="u2iDfoAtIh-SDBU8Mwto-1">
          <mxGeometry x="460" width="60" height="30" as="geometry" />
        </mxCell>
        <mxCell id="7baba1c4bc27f4b0-8" value=":ServiceAcessGui-simulator&lt;br&gt;.Home" style="shape=umlLifeline;perimeter=lifelinePerimeter;whiteSpace=wrap;html=1;container=1;collapsible=0;recursiveResize=0;outlineConnect=0;rounded=1;shadow=0;comic=0;labelBackgroundColor=none;strokeWidth=1;fontFamily=Verdana;fontSize=12;align=center;size=50;" parent="1" vertex="1">
          <mxGeometry x="100" y="80" width="100" height="580" as="geometry" />
        </mxCell>
        <mxCell id="7baba1c4bc27f4b0-9" value="" style="html=1;points=[];perimeter=orthogonalPerimeter;rounded=0;shadow=0;comic=0;labelBackgroundColor=none;strokeWidth=1;fontFamily=Verdana;fontSize=12;align=center;" parent="7baba1c4bc27f4b0-8" vertex="1">
          <mxGeometry x="45" y="100" width="10" height="440" as="geometry" />
        </mxCell>
        <mxCell id="7baba1c4bc27f4b0-40" value="Possibili interazioni CSS &amp;lt;-&amp;gt;SAG-simulator a seguito di una store request" style="shape=note;whiteSpace=wrap;html=1;size=14;verticalAlign=top;align=left;spacingTop=-6;rounded=0;shadow=0;comic=0;labelBackgroundColor=none;strokeWidth=1;fontFamily=Verdana;fontSize=12" parent="1" vertex="1">
          <mxGeometry x="100" y="30" width="510" height="35" as="geometry" />
        </mxCell>
        <mxCell id="WGYdtUEUaQrTIStyGSWO-20" value="disconnect" style="html=1;verticalAlign=bottom;endArrow=block;labelBackgroundColor=none;fontFamily=Verdana;fontSize=12;" parent="1" source="7baba1c4bc27f4b0-2" edge="1">
          <mxGeometry x="0.0828" relative="1" as="geometry">
            <mxPoint x="240" y="550" as="sourcePoint" />
            <mxPoint x="160" y="550" as="targetPoint" />
            <Array as="points" />
            <mxPoint as="offset" />
          </mxGeometry>
        </mxCell>
        <mxCell id="7baba1c4bc27f4b0-4" value=":CSSctx&lt;br&gt;.TicketManager" style="shape=umlLifeline;perimeter=lifelinePerimeter;whiteSpace=wrap;html=1;container=1;collapsible=0;recursiveResize=0;outlineConnect=0;rounded=1;shadow=0;comic=0;labelBackgroundColor=none;strokeWidth=1;fontFamily=Verdana;fontSize=12;align=center;" parent="1" vertex="1">
          <mxGeometry x="890" y="80" width="100" height="680" as="geometry" />
        </mxCell>
        <mxCell id="7baba1c4bc27f4b0-16" value="" style="html=1;points=[];perimeter=orthogonalPerimeter;rounded=0;shadow=0;comic=0;labelBackgroundColor=none;strokeWidth=1;fontFamily=Verdana;fontSize=12;align=center;" parent="7baba1c4bc27f4b0-4" vertex="1">
          <mxGeometry x="45" y="80" width="10" height="400" as="geometry" />
        </mxCell>
        <mxCell id="7baba1c4bc27f4b0-7" value=":CSSctx" style="shape=umlLifeline;perimeter=lifelinePerimeter;whiteSpace=wrap;html=1;container=1;collapsible=0;recursiveResize=0;outlineConnect=0;rounded=1;shadow=0;comic=0;labelBackgroundColor=none;strokeWidth=1;fontFamily=Verdana;fontSize=12;align=center;size=70;points=[];" parent="1" vertex="1">
          <mxGeometry x="350" y="80" width="160" height="580" as="geometry" />
        </mxCell>
        <mxCell id="WGYdtUEUaQrTIStyGSWO-5" value="" style="html=1;points=[];perimeter=orthogonalPerimeter;rounded=0;shadow=0;comic=0;labelBackgroundColor=none;strokeWidth=1;fontFamily=Verdana;fontSize=12;align=center;" parent="7baba1c4bc27f4b0-7" vertex="1">
          <mxGeometry x="77.5" y="90" width="10" height="400" as="geometry" />
        </mxCell>
        <mxCell id="WGYdtUEUaQrTIStyGSWO-10" value="connect" style="html=1;verticalAlign=bottom;endArrow=block;labelBackgroundColor=none;fontFamily=Verdana;fontSize=12;" parent="7baba1c4bc27f4b0-7" edge="1">
          <mxGeometry x="0.653" relative="1" as="geometry">
            <mxPoint x="-195" y="120.8" as="sourcePoint" />
            <mxPoint x="82" y="121" as="targetPoint" />
            <Array as="points" />
            <mxPoint as="offset" />
          </mxGeometry>
        </mxCell>
        <mxCell id="WGYdtUEUaQrTIStyGSWO-15" value="connAccepted" style="html=1;verticalAlign=bottom;endArrow=open;dashed=1;endSize=8;labelBackgroundColor=none;fontFamily=Verdana;fontSize=12;edgeStyle=elbowEdgeStyle;elbow=vertical;" parent="7baba1c4bc27f4b0-7" edge="1">
          <mxGeometry x="-0.1339" relative="1" as="geometry">
            <mxPoint x="-70.00333333333326" y="190" as="targetPoint" />
            <Array as="points">
              <mxPoint x="-43.67" y="190" />
              <mxPoint x="-38.67" y="200" />
            </Array>
            <mxPoint x="70" y="190" as="sourcePoint" />
            <mxPoint as="offset" />
          </mxGeometry>
        </mxCell>
        <mxCell id="WGYdtUEUaQrTIStyGSWO-29" value="&lt;br&gt;&lt;i&gt;&lt;b&gt;loadaccepted&lt;/b&gt;&lt;/i&gt;" style="html=1;verticalAlign=bottom;endArrow=open;dashed=1;endSize=8;labelBackgroundColor=none;fontFamily=Verdana;fontSize=12;edgeStyle=elbowEdgeStyle;elbow=vertical;" parent="7baba1c4bc27f4b0-7" edge="1">
          <mxGeometry x="-0.2272" relative="1" as="geometry">
            <mxPoint x="-75.5" y="430" as="targetPoint" />
            <Array as="points">
              <mxPoint x="30" y="430" />
              <mxPoint x="-139" y="460" />
            </Array>
            <mxPoint x="292" y="430" as="sourcePoint" />
            <mxPoint as="offset" />
          </mxGeometry>
        </mxCell>
        <mxCell id="7baba1c4bc27f4b0-5" value=":CSSctx&lt;br&gt;.ColdRoomManger" style="shape=umlLifeline;perimeter=lifelinePerimeter;whiteSpace=wrap;html=1;container=1;collapsible=0;recursiveResize=0;outlineConnect=0;rounded=1;shadow=0;comic=0;labelBackgroundColor=none;strokeWidth=1;fontFamily=Verdana;fontSize=12;align=center;size=70;" parent="1" vertex="1">
          <mxGeometry x="770" y="80" width="100" height="545" as="geometry" />
        </mxCell>
        <mxCell id="7baba1c4bc27f4b0-19" value="" style="html=1;points=[];perimeter=orthogonalPerimeter;rounded=0;shadow=0;comic=0;labelBackgroundColor=none;strokeWidth=1;fontFamily=Verdana;fontSize=12;align=center;" parent="7baba1c4bc27f4b0-5" vertex="1">
          <mxGeometry x="45" y="80" width="10" height="390" as="geometry" />
        </mxCell>
        <mxCell id="WGYdtUEUaQrTIStyGSWO-11" value="verifyspace" style="html=1;verticalAlign=bottom;endArrow=block;labelBackgroundColor=none;fontFamily=Verdana;fontSize=12;" parent="1" target="7baba1c4bc27f4b0-5" edge="1">
          <mxGeometry x="0.005" relative="1" as="geometry">
            <mxPoint x="640" y="320" as="sourcePoint" />
            <mxPoint x="920" y="330" as="targetPoint" />
            <Array as="points">
              <mxPoint x="750" y="320" />
            </Array>
            <mxPoint x="1" as="offset" />
          </mxGeometry>
        </mxCell>
        <mxCell id="dP_4IrJM_J5E9Byek_nk-1" value="storeRequest" style="html=1;verticalAlign=bottom;endArrow=block;labelBackgroundColor=none;fontFamily=Verdana;fontSize=12;entryX=0.494;entryY=0.3;entryDx=0;entryDy=0;entryPerimeter=0;" edge="1" parent="1" source="7baba1c4bc27f4b0-2" target="7baba1c4bc27f4b0-3">
          <mxGeometry x="0.653" relative="1" as="geometry">
            <mxPoint x="350" y="300" as="sourcePoint" />
            <mxPoint x="627" y="300.2" as="targetPoint" />
            <Array as="points" />
            <mxPoint as="offset" />
          </mxGeometry>
        </mxCell>
      </root>
    </mxGraphModel>
  </diagram>
</mxfile>
